STARTFONT 2.1
COMMENT  
COMMENT  WARNING:  This bdf file was generated from an X server using
COMMENT  xbdfdump.  The resulting font is subject to the same copyright,
COMMENT  license, and trademark restrictions as the original font.  The
COMMENT  author and distributors of xbdfdump disclaim all liability for
COMMENT  misuse of the program or its output.
COMMENT  
FONT -Phaisarn-Chula-Medium-R-Normal--20-200-75-75-C-100-tis620-0
SIZE 20 75 75
FONTBOUNDINGBOX 16 20 -8 -4
STARTPROPERTIES 22
FONTNAME_REGISTRY ""
FOUNDRY "Phaisarn"
FAMILY_NAME "Chula"
WEIGHT_NAME "Medium"
SLANT "R"
SETWIDTH_NAME "Normal"
ADD_STYLE_NAME ""
PIXEL_SIZE 20
POINT_SIZE 200
RESOLUTION_X 75
RESOLUTION_Y 75
SPACING "C"
AVERAGE_WIDTH 100
CHARSET_REGISTRY "tis620"
CHARSET_ENCODING "0"
COPYRIGHT "Copyright 1997  Phaisarn Techajaruwong, TITech."
WEIGHT 10
X_HEIGHT 18
QUAD_WIDTH 10
DEFAULT_CHAR 0
FONT_ASCENT 18
FONT_DESCENT 5
ENDPROPERTIES
CHARS 256
STARTCHAR C000
ENCODING 0
SWIDTH 384 0
DWIDTH 8 0
BBX 8 20 0 -4
BITMAP
00
00
00
00
00
00
00
00
00
00
00
00
00
00
00
00
00
00
00
00
ENDCHAR
STARTCHAR C001
ENCODING 1
SWIDTH 384 0
DWIDTH 8 0
BBX 8 20 0 -4
BITMAP
00
00
00
00
00
00
00
00
00
00
00
00
00
00
00
00
00
00
00
00
ENDCHAR
STARTCHAR C002
ENCODING 2
SWIDTH 384 0
DWIDTH 8 0
BBX 8 20 0 -4
BITMAP
00
00
00
00
00
00
00
00
00
00
00
00
00
00
00
00
00
00
00
00
ENDCHAR
STARTCHAR C003
ENCODING 3
SWIDTH 384 0
DWIDTH 8 0
BBX 8 20 0 -4
BITMAP
00
00
00
00
00
00
00
00
00
00
00
00
00
00
00
00
00
00
00
00
ENDCHAR
STARTCHAR C004
ENCODING 4
SWIDTH 384 0
DWIDTH 8 0
BBX 8 20 0 -4
BITMAP
00
00
00
00
00
00
00
00
00
00
00
00
00
00
00
00
00
00
00
00
ENDCHAR
STARTCHAR C005
ENCODING 5
SWIDTH 384 0
DWIDTH 8 0
BBX 8 20 0 -4
BITMAP
00
00
00
00
00
00
00
00
00
00
00
00
00
00
00
00
00
00
00
00
ENDCHAR
STARTCHAR C006
ENCODING 6
SWIDTH 384 0
DWIDTH 8 0
BBX 8 20 0 -4
BITMAP
00
00
00
00
00
00
00
00
00
00
00
00
00
00
00
00
00
00
00
00
ENDCHAR
STARTCHAR C007
ENCODING 7
SWIDTH 384 0
DWIDTH 8 0
BBX 8 20 0 -4
BITMAP
00
00
00
00
00
00
00
00
00
00
00
00
00
00
00
00
00
00
00
00
ENDCHAR
STARTCHAR C010
ENCODING 8
SWIDTH 384 0
DWIDTH 8 0
BBX 8 20 0 -4
BITMAP
00
00
00
00
00
00
00
00
00
00
00
00
00
00
00
00
00
00
00
00
ENDCHAR
STARTCHAR C011
ENCODING 9
SWIDTH 384 0
DWIDTH 8 0
BBX 8 20 0 -4
BITMAP
00
00
00
00
00
00
00
00
00
00
00
00
00
00
00
00
00
00
00
00
ENDCHAR
STARTCHAR C012
ENCODING 10
SWIDTH 384 0
DWIDTH 8 0
BBX 8 20 0 -4
BITMAP
00
00
00
00
00
00
00
00
00
00
00
00
00
00
00
00
00
00
00
00
ENDCHAR
STARTCHAR C013
ENCODING 11
SWIDTH 384 0
DWIDTH 8 0
BBX 8 20 0 -4
BITMAP
00
00
00
00
00
00
00
00
00
00
00
00
00
00
00
00
00
00
00
00
ENDCHAR
STARTCHAR C014
ENCODING 12
SWIDTH 384 0
DWIDTH 8 0
BBX 8 20 0 -4
BITMAP
00
00
00
00
00
00
00
00
00
00
00
00
00
00
00
00
00
00
00
00
ENDCHAR
STARTCHAR C015
ENCODING 13
SWIDTH 384 0
DWIDTH 8 0
BBX 8 20 0 -4
BITMAP
00
00
00
00
00
00
00
00
00
00
00
00
00
00
00
00
00
00
00
00
ENDCHAR
STARTCHAR C016
ENCODING 14
SWIDTH 384 0
DWIDTH 8 0
BBX 8 20 0 -4
BITMAP
00
00
00
00
00
00
00
00
00
00
00
00
00
00
00
00
00
00
00
00
ENDCHAR
STARTCHAR C017
ENCODING 15
SWIDTH 384 0
DWIDTH 8 0
BBX 8 20 0 -4
BITMAP
00
00
00
00
00
00
00
00
00
00
00
00
00
00
00
00
00
00
00
00
ENDCHAR
STARTCHAR C020
ENCODING 16
SWIDTH 384 0
DWIDTH 8 0
BBX 8 20 0 -4
BITMAP
00
00
00
00
00
00
00
00
00
00
00
00
00
00
00
00
00
00
00
00
ENDCHAR
STARTCHAR C021
ENCODING 17
SWIDTH 384 0
DWIDTH 8 0
BBX 8 20 0 -4
BITMAP
00
00
00
00
00
00
00
00
00
00
00
00
00
00
00
00
00
00
00
00
ENDCHAR
STARTCHAR C022
ENCODING 18
SWIDTH 384 0
DWIDTH 8 0
BBX 8 20 0 -4
BITMAP
00
00
00
00
00
00
00
00
00
00
00
00
00
00
00
00
00
00
00
00
ENDCHAR
STARTCHAR C023
ENCODING 19
SWIDTH 384 0
DWIDTH 8 0
BBX 8 20 0 -4
BITMAP
00
00
00
00
00
00
00
00
00
00
00
00
00
00
00
00
00
00
00
00
ENDCHAR
STARTCHAR C024
ENCODING 20
SWIDTH 384 0
DWIDTH 8 0
BBX 8 20 0 -4
BITMAP
00
00
00
00
00
00
00
00
00
00
00
00
00
00
00
00
00
00
00
00
ENDCHAR
STARTCHAR C025
ENCODING 21
SWIDTH 384 0
DWIDTH 8 0
BBX 8 20 0 -4
BITMAP
00
00
00
00
00
00
00
00
00
00
00
00
00
00
00
00
00
00
00
00
ENDCHAR
STARTCHAR C026
ENCODING 22
SWIDTH 384 0
DWIDTH 8 0
BBX 8 20 0 -4
BITMAP
00
00
00
00
00
00
00
00
00
00
00
00
00
00
00
00
00
00
00
00
ENDCHAR
STARTCHAR C027
ENCODING 23
SWIDTH 384 0
DWIDTH 8 0
BBX 8 20 0 -4
BITMAP
00
00
00
00
00
00
00
00
00
00
00
00
00
00
00
00
00
00
00
00
ENDCHAR
STARTCHAR C030
ENCODING 24
SWIDTH 384 0
DWIDTH 8 0
BBX 8 20 0 -4
BITMAP
00
00
00
00
00
00
00
00
00
00
00
00
00
00
00
00
00
00
00
00
ENDCHAR
STARTCHAR C031
ENCODING 25
SWIDTH 384 0
DWIDTH 8 0
BBX 8 20 0 -4
BITMAP
00
00
00
00
00
00
00
00
00
00
00
00
00
00
00
00
00
00
00
00
ENDCHAR
STARTCHAR C032
ENCODING 26
SWIDTH 384 0
DWIDTH 8 0
BBX 8 20 0 -4
BITMAP
00
00
00
00
00
00
00
00
00
00
00
00
00
00
00
00
00
00
00
00
ENDCHAR
STARTCHAR C033
ENCODING 27
SWIDTH 384 0
DWIDTH 8 0
BBX 8 20 0 -4
BITMAP
00
00
00
00
00
00
00
00
00
00
00
00
00
00
00
00
00
00
00
00
ENDCHAR
STARTCHAR C034
ENCODING 28
SWIDTH 384 0
DWIDTH 8 0
BBX 8 20 0 -4
BITMAP
00
00
00
00
00
00
00
00
00
00
00
00
00
00
00
00
00
00
00
00
ENDCHAR
STARTCHAR C035
ENCODING 29
SWIDTH 384 0
DWIDTH 8 0
BBX 8 20 0 -4
BITMAP
00
00
00
00
00
00
00
00
00
00
00
00
00
00
00
00
00
00
00
00
ENDCHAR
STARTCHAR C036
ENCODING 30
SWIDTH 384 0
DWIDTH 8 0
BBX 8 20 0 -4
BITMAP
00
00
00
00
00
00
00
00
00
00
00
00
00
00
00
00
00
00
00
00
ENDCHAR
STARTCHAR C037
ENCODING 31
SWIDTH 384 0
DWIDTH 8 0
BBX 8 20 0 -4
BITMAP
00
00
00
00
00
00
00
00
00
00
00
00
00
00
00
00
00
00
00
00
ENDCHAR
STARTCHAR space
ENCODING 32
SWIDTH 384 0
DWIDTH 8 0
BBX 8 20 0 -4
BITMAP
00
00
00
00
00
00
00
00
00
00
00
00
00
00
00
00
00
00
00
00
ENDCHAR
STARTCHAR exclam
ENCODING 33
SWIDTH 384 0
DWIDTH 8 0
BBX 8 20 0 -4
BITMAP
00
00
00
00
00
00
00
10
38
38
38
38
10
10
00
10
00
00
00
00
ENDCHAR
STARTCHAR quotedbl
ENCODING 34
SWIDTH 384 0
DWIDTH 8 0
BBX 8 20 0 -4
BITMAP
00
00
00
00
00
00
00
00
28
28
28
00
00
00
00
00
00
00
00
00
ENDCHAR
STARTCHAR numbersign
ENCODING 35
SWIDTH 384 0
DWIDTH 8 0
BBX 8 20 0 -4
BITMAP
00
00
00
00
00
00
00
00
00
24
24
7e
24
7e
24
24
00
00
00
00
ENDCHAR
STARTCHAR dollar
ENCODING 36
SWIDTH 384 0
DWIDTH 8 0
BBX 8 20 0 -4
BITMAP
00
00
00
00
00
00
00
00
00
10
7c
90
7c
12
7c
10
00
00
00
00
ENDCHAR
STARTCHAR percent
ENCODING 37
SWIDTH 384 0
DWIDTH 8 0
BBX 8 20 0 -4
BITMAP
00
00
00
00
00
00
00
00
00
c2
c4
08
10
20
46
86
00
00
00
00
ENDCHAR
STARTCHAR ampersand
ENCODING 38
SWIDTH 384 0
DWIDTH 8 0
BBX 8 20 0 -4
BITMAP
00
00
00
00
00
00
00
00
00
38
6c
38
52
8a
8c
73
00
00
00
00
ENDCHAR
STARTCHAR apostrophe
ENCODING 39
SWIDTH 384 0
DWIDTH 8 0
BBX 8 20 0 -4
BITMAP
00
00
00
00
00
00
00
00
18
08
10
00
00
00
00
00
00
00
00
00
ENDCHAR
STARTCHAR parenleft
ENCODING 40
SWIDTH 384 0
DWIDTH 8 0
BBX 8 20 0 -4
BITMAP
00
00
00
00
00
00
00
08
10
20
20
20
20
20
10
08
00
00
00
00
ENDCHAR
STARTCHAR parenright
ENCODING 41
SWIDTH 384 0
DWIDTH 8 0
BBX 8 20 0 -4
BITMAP
00
00
00
00
00
00
00
20
10
08
08
08
08
08
10
20
00
00
00
00
ENDCHAR
STARTCHAR asterisk
ENCODING 42
SWIDTH 384 0
DWIDTH 8 0
BBX 8 20 0 -4
BITMAP
00
00
00
00
00
00
00
00
00
00
24
18
7e
18
24
00
00
00
00
00
ENDCHAR
STARTCHAR plus
ENCODING 43
SWIDTH 384 0
DWIDTH 8 0
BBX 8 20 0 -4
BITMAP
00
00
00
00
00
00
00
00
00
00
18
18
7e
18
18
00
00
00
00
00
ENDCHAR
STARTCHAR comma
ENCODING 44
SWIDTH 384 0
DWIDTH 8 0
BBX 8 20 0 -4
BITMAP
00
00
00
00
00
00
00
00
00
00
00
00
00
00
18
18
08
30
00
00
ENDCHAR
STARTCHAR minus
ENCODING 45
SWIDTH 384 0
DWIDTH 8 0
BBX 8 20 0 -4
BITMAP
00
00
00
00
00
00
00
00
00
00
00
00
7e
00
00
00
00
00
00
00
ENDCHAR
STARTCHAR period
ENCODING 46
SWIDTH 384 0
DWIDTH 8 0
BBX 8 20 0 -4
BITMAP
00
00
00
00
00
00
00
00
00
00
00
00
00
00
18
18
00
00
00
00
ENDCHAR
STARTCHAR slash
ENCODING 47
SWIDTH 384 0
DWIDTH 8 0
BBX 8 20 0 -4
BITMAP
00
00
00
00
00
00
00
04
04
08
08
10
20
20
40
40
00
00
00
00
ENDCHAR
STARTCHAR 0
ENCODING 48
SWIDTH 384 0
DWIDTH 8 0
BBX 8 20 0 -4
BITMAP
00
00
00
00
00
00
00
3c
42
42
4e
5a
72
42
42
3c
00
00
00
00
ENDCHAR
STARTCHAR 1
ENCODING 49
SWIDTH 384 0
DWIDTH 8 0
BBX 8 20 0 -4
BITMAP
00
00
00
00
00
00
00
10
30
10
10
10
10
10
10
38
00
00
00
00
ENDCHAR
STARTCHAR 2
ENCODING 50
SWIDTH 384 0
DWIDTH 8 0
BBX 8 20 0 -4
BITMAP
00
00
00
00
00
00
00
3c
42
02
02
04
08
10
20
7e
00
00
00
00
ENDCHAR
STARTCHAR 3
ENCODING 51
SWIDTH 384 0
DWIDTH 8 0
BBX 8 20 0 -4
BITMAP
00
00
00
00
00
00
00
3c
42
02
02
1c
02
02
42
3c
00
00
00
00
ENDCHAR
STARTCHAR 4
ENCODING 52
SWIDTH 384 0
DWIDTH 8 0
BBX 8 20 0 -4
BITMAP
00
00
00
00
00
00
00
04
0c
14
24
44
84
fe
04
04
00
00
00
00
ENDCHAR
STARTCHAR 5
ENCODING 53
SWIDTH 384 0
DWIDTH 8 0
BBX 8 20 0 -4
BITMAP
00
00
00
00
00
00
00
fc
80
80
f8
84
02
02
84
78
00
00
00
00
ENDCHAR
STARTCHAR 6
ENCODING 54
SWIDTH 384 0
DWIDTH 8 0
BBX 8 20 0 -4
BITMAP
00
00
00
00
00
00
00
1c
20
40
40
7c
42
42
42
3c
00
00
00
00
ENDCHAR
STARTCHAR 7
ENCODING 55
SWIDTH 384 0
DWIDTH 8 0
BBX 8 20 0 -4
BITMAP
00
00
00
00
00
00
00
7e
42
02
04
04
08
08
10
10
00
00
00
00
ENDCHAR
STARTCHAR 8
ENCODING 56
SWIDTH 384 0
DWIDTH 8 0
BBX 8 20 0 -4
BITMAP
00
00
00
00
00
00
00
3c
42
42
42
3c
42
42
42
3c
00
00
00
00
ENDCHAR
STARTCHAR 9
ENCODING 57
SWIDTH 384 0
DWIDTH 8 0
BBX 8 20 0 -4
BITMAP
00
00
00
00
00
00
00
3c
42
42
42
3e
02
04
08
70
00
00
00
00
ENDCHAR
STARTCHAR colon
ENCODING 58
SWIDTH 384 0
DWIDTH 8 0
BBX 8 20 0 -4
BITMAP
00
00
00
00
00
00
00
00
00
00
18
18
00
18
18
00
00
00
00
00
ENDCHAR
STARTCHAR semicolon
ENCODING 59
SWIDTH 384 0
DWIDTH 8 0
BBX 8 20 0 -4
BITMAP
00
00
00
00
00
00
00
00
00
00
18
18
00
18
18
30
00
00
00
00
ENDCHAR
STARTCHAR less
ENCODING 60
SWIDTH 384 0
DWIDTH 8 0
BBX 8 20 0 -4
BITMAP
00
00
00
00
00
00
00
00
00
04
08
10
20
10
08
04
00
00
00
00
ENDCHAR
STARTCHAR equal
ENCODING 61
SWIDTH 384 0
DWIDTH 8 0
BBX 8 20 0 -4
BITMAP
00
00
00
00
00
00
00
00
00
00
00
7c
00
7c
00
00
00
00
00
00
ENDCHAR
STARTCHAR greater
ENCODING 62
SWIDTH 384 0
DWIDTH 8 0
BBX 8 20 0 -4
BITMAP
00
00
00
00
00
00
00
00
00
20
10
08
04
08
10
20
00
00
00
00
ENDCHAR
STARTCHAR question
ENCODING 63
SWIDTH 384 0
DWIDTH 8 0
BBX 8 20 0 -4
BITMAP
00
00
00
00
00
00
00
3c
42
42
32
04
08
08
00
08
00
00
00
00
ENDCHAR
STARTCHAR at
ENCODING 64
SWIDTH 384 0
DWIDTH 8 0
BBX 8 20 0 -4
BITMAP
00
00
00
00
00
00
00
00
1c
22
4d
55
55
4a
20
1e
00
00
00
00
ENDCHAR
STARTCHAR A
ENCODING 65
SWIDTH 384 0
DWIDTH 8 0
BBX 8 20 0 -4
BITMAP
00
00
00
00
00
00
00
10
28
44
82
82
fe
82
82
82
00
00
00
00
ENDCHAR
STARTCHAR B
ENCODING 66
SWIDTH 384 0
DWIDTH 8 0
BBX 8 20 0 -4
BITMAP
00
00
00
00
00
00
00
fc
42
42
42
7c
42
42
42
fc
00
00
00
00
ENDCHAR
STARTCHAR C
ENCODING 67
SWIDTH 384 0
DWIDTH 8 0
BBX 8 20 0 -4
BITMAP
00
00
00
00
00
00
00
1c
22
40
40
40
40
40
22
1c
00
00
00
00
ENDCHAR
STARTCHAR D
ENCODING 68
SWIDTH 384 0
DWIDTH 8 0
BBX 8 20 0 -4
BITMAP
00
00
00
00
00
00
00
f8
44
42
42
42
42
42
44
f8
00
00
00
00
ENDCHAR
STARTCHAR E
ENCODING 69
SWIDTH 384 0
DWIDTH 8 0
BBX 8 20 0 -4
BITMAP
00
00
00
00
00
00
00
fe
42
42
48
78
48
40
42
fe
00
00
00
00
ENDCHAR
STARTCHAR F
ENCODING 70
SWIDTH 384 0
DWIDTH 8 0
BBX 8 20 0 -4
BITMAP
00
00
00
00
00
00
00
fe
42
40
48
78
48
40
40
e0
00
00
00
00
ENDCHAR
STARTCHAR G
ENCODING 71
SWIDTH 384 0
DWIDTH 8 0
BBX 8 20 0 -4
BITMAP
00
00
00
00
00
00
00
3c
42
42
40
40
4e
42
46
3a
00
00
00
00
ENDCHAR
STARTCHAR H
ENCODING 72
SWIDTH 384 0
DWIDTH 8 0
BBX 8 20 0 -4
BITMAP
00
00
00
00
00
00
00
42
42
42
42
7e
42
42
42
42
00
00
00
00
ENDCHAR
STARTCHAR I
ENCODING 73
SWIDTH 384 0
DWIDTH 8 0
BBX 8 20 0 -4
BITMAP
00
00
00
00
00
00
00
38
10
10
10
10
10
10
10
38
00
00
00
00
ENDCHAR
STARTCHAR J
ENCODING 74
SWIDTH 384 0
DWIDTH 8 0
BBX 8 20 0 -4
BITMAP
00
00
00
00
00
00
00
0e
04
04
04
04
04
04
44
38
00
00
00
00
ENDCHAR
STARTCHAR K
ENCODING 75
SWIDTH 384 0
DWIDTH 8 0
BBX 8 20 0 -4
BITMAP
00
00
00
00
00
00
00
e7
44
48
50
60
50
48
44
e7
00
00
00
00
ENDCHAR
STARTCHAR L
ENCODING 76
SWIDTH 384 0
DWIDTH 8 0
BBX 8 20 0 -4
BITMAP
00
00
00
00
00
00
00
70
20
20
20
20
20
20
22
7e
00
00
00
00
ENDCHAR
STARTCHAR M
ENCODING 77
SWIDTH 384 0
DWIDTH 8 0
BBX 8 20 0 -4
BITMAP
00
00
00
00
00
00
00
82
c6
aa
92
92
82
82
82
82
00
00
00
00
ENDCHAR
STARTCHAR N
ENCODING 78
SWIDTH 384 0
DWIDTH 8 0
BBX 8 20 0 -4
BITMAP
00
00
00
00
00
00
00
e7
62
52
52
52
4a
4a
46
e6
00
00
00
00
ENDCHAR
STARTCHAR O
ENCODING 79
SWIDTH 384 0
DWIDTH 8 0
BBX 8 20 0 -4
BITMAP
00
00
00
00
00
00
00
3c
42
42
42
42
42
42
42
3c
00
00
00
00
ENDCHAR
STARTCHAR P
ENCODING 80
SWIDTH 384 0
DWIDTH 8 0
BBX 8 20 0 -4
BITMAP
00
00
00
00
00
00
00
5c
22
22
22
3c
20
20
20
70
00
00
00
00
ENDCHAR
STARTCHAR Q
ENCODING 81
SWIDTH 384 0
DWIDTH 8 0
BBX 8 20 0 -4
BITMAP
00
00
00
00
00
00
00
3c
42
42
42
42
52
4a
46
3d
00
00
00
00
ENDCHAR
STARTCHAR R
ENCODING 82
SWIDTH 384 0
DWIDTH 8 0
BBX 8 20 0 -4
BITMAP
00
00
00
00
00
00
00
fc
42
42
42
7c
50
48
44
e7
00
00
00
00
ENDCHAR
STARTCHAR S
ENCODING 83
SWIDTH 384 0
DWIDTH 8 0
BBX 8 20 0 -4
BITMAP
00
00
00
00
00
00
00
3a
46
42
40
30
0c
42
62
5c
00
00
00
00
ENDCHAR
STARTCHAR T
ENCODING 84
SWIDTH 384 0
DWIDTH 8 0
BBX 8 20 0 -4
BITMAP
00
00
00
00
00
00
00
fe
92
10
10
10
10
10
10
38
00
00
00
00
ENDCHAR
STARTCHAR U
ENCODING 85
SWIDTH 384 0
DWIDTH 8 0
BBX 8 20 0 -4
BITMAP
00
00
00
00
00
00
00
e7
42
42
42
42
42
42
42
3c
00
00
00
00
ENDCHAR
STARTCHAR V
ENCODING 86
SWIDTH 384 0
DWIDTH 8 0
BBX 8 20 0 -4
BITMAP
00
00
00
00
00
00
00
82
82
82
82
44
44
28
28
10
00
00
00
00
ENDCHAR
STARTCHAR W
ENCODING 87
SWIDTH 384 0
DWIDTH 8 0
BBX 8 20 0 -4
BITMAP
00
00
00
00
00
00
00
82
82
82
82
82
92
aa
44
44
00
00
00
00
ENDCHAR
STARTCHAR X
ENCODING 88
SWIDTH 384 0
DWIDTH 8 0
BBX 8 20 0 -4
BITMAP
00
00
00
00
00
00
00
82
82
44
28
10
28
44
82
82
00
00
00
00
ENDCHAR
STARTCHAR Y
ENCODING 89
SWIDTH 384 0
DWIDTH 8 0
BBX 8 20 0 -4
BITMAP
00
00
00
00
00
00
00
c6
44
44
28
10
10
10
10
38
00
00
00
00
ENDCHAR
STARTCHAR Z
ENCODING 90
SWIDTH 384 0
DWIDTH 8 0
BBX 8 20 0 -4
BITMAP
00
00
00
00
00
00
00
fe
82
04
08
10
20
40
82
fe
00
00
00
00
ENDCHAR
STARTCHAR bracketleft
ENCODING 91
SWIDTH 384 0
DWIDTH 8 0
BBX 8 20 0 -4
BITMAP
00
00
00
00
00
00
00
38
20
20
20
20
20
20
20
38
00
00
00
00
ENDCHAR
STARTCHAR backslash
ENCODING 92
SWIDTH 384 0
DWIDTH 8 0
BBX 8 20 0 -4
BITMAP
00
00
00
00
00
00
00
40
40
20
20
10
08
08
04
04
00
00
00
00
ENDCHAR
STARTCHAR bracketright
ENCODING 93
SWIDTH 384 0
DWIDTH 8 0
BBX 8 20 0 -4
BITMAP
00
00
00
00
00
00
00
38
08
08
08
08
08
08
08
38
00
00
00
00
ENDCHAR
STARTCHAR asciicircum
ENCODING 94
SWIDTH 384 0
DWIDTH 8 0
BBX 8 20 0 -4
BITMAP
00
00
00
00
00
10
28
44
00
00
00
00
00
00
00
00
00
00
00
00
ENDCHAR
STARTCHAR underscore
ENCODING 95
SWIDTH 384 0
DWIDTH 8 0
BBX 8 20 0 -4
BITMAP
00
00
00
00
00
00
00
00
00
00
00
00
00
00
00
7e
00
00
00
00
ENDCHAR
STARTCHAR grave
ENCODING 96
SWIDTH 384 0
DWIDTH 8 0
BBX 8 20 0 -4
BITMAP
00
00
00
00
00
00
00
00
30
20
10
00
00
00
00
00
00
00
00
00
ENDCHAR
STARTCHAR a
ENCODING 97
SWIDTH 384 0
DWIDTH 8 0
BBX 8 20 0 -4
BITMAP
00
00
00
00
00
00
00
00
00
78
04
04
7c
84
84
7a
00
00
00
00
ENDCHAR
STARTCHAR b
ENCODING 98
SWIDTH 384 0
DWIDTH 8 0
BBX 8 20 0 -4
BITMAP
00
00
00
00
00
00
00
60
20
38
24
22
22
22
22
5c
00
00
00
00
ENDCHAR
STARTCHAR c
ENCODING 99
SWIDTH 384 0
DWIDTH 8 0
BBX 8 20 0 -4
BITMAP
00
00
00
00
00
00
00
00
00
3c
42
40
40
40
42
3c
00
00
00
00
ENDCHAR
STARTCHAR d
ENCODING 100
SWIDTH 384 0
DWIDTH 8 0
BBX 8 20 0 -4
BITMAP
00
00
00
00
00
00
00
0c
04
1c
24
44
44
44
44
3a
00
00
00
00
ENDCHAR
STARTCHAR e
ENCODING 101
SWIDTH 384 0
DWIDTH 8 0
BBX 8 20 0 -4
BITMAP
00
00
00
00
00
00
00
00
00
3c
42
7e
40
40
42
3c
00
00
00
00
ENDCHAR
STARTCHAR f
ENCODING 102
SWIDTH 384 0
DWIDTH 8 0
BBX 8 20 0 -4
BITMAP
00
00
00
00
00
00
00
18
24
20
20
70
20
20
20
70
00
00
00
00
ENDCHAR
STARTCHAR g
ENCODING 103
SWIDTH 384 0
DWIDTH 8 0
BBX 8 20 0 -4
BITMAP
00
00
00
00
00
00
00
00
00
3a
44
44
44
3c
04
04
44
38
00
00
ENDCHAR
STARTCHAR h
ENCODING 104
SWIDTH 384 0
DWIDTH 8 0
BBX 8 20 0 -4
BITMAP
00
00
00
00
00
00
00
60
20
2c
32
22
22
22
22
62
00
00
00
00
ENDCHAR
STARTCHAR i
ENCODING 105
SWIDTH 384 0
DWIDTH 8 0
BBX 8 20 0 -4
BITMAP
00
00
00
00
00
00
00
10
00
30
10
10
10
10
10
38
00
00
00
00
ENDCHAR
STARTCHAR j
ENCODING 106
SWIDTH 384 0
DWIDTH 8 0
BBX 8 20 0 -4
BITMAP
00
00
00
00
00
00
00
04
00
0c
04
04
04
04
04
24
18
00
00
00
ENDCHAR
STARTCHAR k
ENCODING 107
SWIDTH 384 0
DWIDTH 8 0
BBX 8 20 0 -4
BITMAP
00
00
00
00
00
00
00
60
20
24
28
30
30
28
24
64
00
00
00
00
ENDCHAR
STARTCHAR l
ENCODING 108
SWIDTH 384 0
DWIDTH 8 0
BBX 8 20 0 -4
BITMAP
00
00
00
00
00
00
00
18
08
08
08
08
08
08
08
1c
00
00
00
00
ENDCHAR
STARTCHAR m
ENCODING 109
SWIDTH 384 0
DWIDTH 8 0
BBX 8 20 0 -4
BITMAP
00
00
00
00
00
00
00
00
00
ec
92
92
92
92
92
92
00
00
00
00
ENDCHAR
STARTCHAR n
ENCODING 110
SWIDTH 384 0
DWIDTH 8 0
BBX 8 20 0 -4
BITMAP
00
00
00
00
00
00
00
00
00
d8
64
44
44
44
44
44
00
00
00
00
ENDCHAR
STARTCHAR o
ENCODING 111
SWIDTH 384 0
DWIDTH 8 0
BBX 8 20 0 -4
BITMAP
00
00
00
00
00
00
00
00
00
3c
42
42
42
42
42
3c
00
00
00
00
ENDCHAR
STARTCHAR p
ENCODING 112
SWIDTH 384 0
DWIDTH 8 0
BBX 8 20 0 -4
BITMAP
00
00
00
00
00
00
00
00
00
5c
22
22
22
22
3c
20
20
70
00
00
ENDCHAR
STARTCHAR q
ENCODING 113
SWIDTH 384 0
DWIDTH 8 0
BBX 8 20 0 -4
BITMAP
00
00
00
00
00
00
00
00
00
3a
44
44
44
44
3c
04
04
0e
00
00
ENDCHAR
STARTCHAR r
ENCODING 114
SWIDTH 384 0
DWIDTH 8 0
BBX 8 20 0 -4
BITMAP
00
00
00
00
00
00
00
00
00
58
24
24
20
20
20
70
00
00
00
00
ENDCHAR
STARTCHAR s
ENCODING 115
SWIDTH 384 0
DWIDTH 8 0
BBX 8 20 0 -4
BITMAP
00
00
00
00
00
00
00
00
00
3c
42
40
3c
02
42
3c
00
00
00
00
ENDCHAR
STARTCHAR t
ENCODING 116
SWIDTH 384 0
DWIDTH 8 0
BBX 8 20 0 -4
BITMAP
00
00
00
00
00
00
00
20
20
70
20
20
20
20
24
18
00
00
00
00
ENDCHAR
STARTCHAR u
ENCODING 117
SWIDTH 384 0
DWIDTH 8 0
BBX 8 20 0 -4
BITMAP
00
00
00
00
00
00
00
00
00
44
44
44
44
44
44
3a
00
00
00
00
ENDCHAR
STARTCHAR v
ENCODING 118
SWIDTH 384 0
DWIDTH 8 0
BBX 8 20 0 -4
BITMAP
00
00
00
00
00
00
00
00
00
82
82
82
44
44
28
10
00
00
00
00
ENDCHAR
STARTCHAR w
ENCODING 119
SWIDTH 384 0
DWIDTH 8 0
BBX 8 20 0 -4
BITMAP
00
00
00
00
00
00
00
00
00
82
82
82
92
aa
44
44
00
00
00
00
ENDCHAR
STARTCHAR x
ENCODING 120
SWIDTH 384 0
DWIDTH 8 0
BBX 8 20 0 -4
BITMAP
00
00
00
00
00
00
00
00
00
82
44
28
10
28
44
82
00
00
00
00
ENDCHAR
STARTCHAR y
ENCODING 121
SWIDTH 384 0
DWIDTH 8 0
BBX 8 20 0 -4
BITMAP
00
00
00
00
00
00
00
00
00
42
42
42
42
3e
02
02
04
38
00
00
ENDCHAR
STARTCHAR z
ENCODING 122
SWIDTH 384 0
DWIDTH 8 0
BBX 8 20 0 -4
BITMAP
00
00
00
00
00
00
00
00
00
7e
42
04
08
10
22
7e
00
00
00
00
ENDCHAR
STARTCHAR braceleft
ENCODING 123
SWIDTH 384 0
DWIDTH 8 0
BBX 8 20 0 -4
BITMAP
00
00
00
00
00
00
00
0e
10
10
20
40
20
10
10
0e
00
00
00
00
ENDCHAR
STARTCHAR bar
ENCODING 124
SWIDTH 384 0
DWIDTH 8 0
BBX 8 20 0 -4
BITMAP
00
00
00
00
00
00
00
00
00
10
10
10
00
10
10
10
00
00
00
00
ENDCHAR
STARTCHAR braceright
ENCODING 125
SWIDTH 384 0
DWIDTH 8 0
BBX 8 20 0 -4
BITMAP
00
00
00
00
00
00
00
70
08
08
04
02
04
08
08
70
00
00
00
00
ENDCHAR
STARTCHAR asciitilde
ENCODING 126
SWIDTH 384 0
DWIDTH 8 0
BBX 8 20 0 -4
BITMAP
00
00
00
00
00
00
00
00
00
00
60
92
0c
00
00
00
00
00
00
00
ENDCHAR
STARTCHAR C177
ENCODING 127
SWIDTH 384 0
DWIDTH 8 0
BBX 8 20 0 -4
BITMAP
00
00
00
00
00
00
00
00
00
00
00
00
00
00
00
00
00
00
00
00
ENDCHAR
STARTCHAR C200
ENCODING 128
SWIDTH 384 0
DWIDTH 8 0
BBX 8 20 0 -4
BITMAP
00
00
00
00
00
00
00
00
00
66
98
88
88
88
98
66
00
00
00
00
ENDCHAR
STARTCHAR C201
ENCODING 129
SWIDTH 384 0
DWIDTH 8 0
BBX 8 20 0 -4
BITMAP
00
00
00
00
00
00
00
00
00
70
48
48
70
48
44
78
40
40
00
00
ENDCHAR
STARTCHAR C202
ENCODING 130
SWIDTH 384 0
DWIDTH 8 0
BBX 8 20 0 -4
BITMAP
00
00
00
00
00
00
00
00
63
14
18
10
20
20
40
40
00
00
00
00
ENDCHAR
STARTCHAR C203
ENCODING 131
SWIDTH 384 0
DWIDTH 8 0
BBX 8 20 0 -4
BITMAP
00
00
00
00
00
00
00
00
00
3c
42
42
7e
42
42
3c
00
00
00
00
ENDCHAR
STARTCHAR C204
ENCODING 132
SWIDTH 384 0
DWIDTH 8 0
BBX 8 20 0 -4
BITMAP
00
00
00
00
00
00
00
00
00
00
00
ff
00
00
00
00
00
00
00
00
ENDCHAR
STARTCHAR C205
ENCODING 133
SWIDTH 384 0
DWIDTH 8 0
BBX 8 20 0 -4
BITMAP
00
00
00
00
00
00
fe
42
20
10
08
04
08
10
20
42
fe
00
00
00
ENDCHAR
STARTCHAR C206
ENCODING 134
SWIDTH 384 0
DWIDTH 8 0
BBX 8 20 0 -4
BITMAP
10
10
10
10
10
10
10
10
10
10
10
10
10
50
b0
10
00
00
00
00
ENDCHAR
STARTCHAR C207
ENCODING 135
SWIDTH 384 0
DWIDTH 8 0
BBX 8 20 0 -4
BITMAP
00
00
00
00
00
00
00
00
10
10
28
28
44
44
82
fe
10
10
10
10
ENDCHAR
STARTCHAR C210
ENCODING 136
SWIDTH 384 0
DWIDTH 8 0
BBX 8 20 0 -4
BITMAP
10
10
10
10
10
10
10
10
fe
82
44
44
28
28
10
10
00
00
00
00
ENDCHAR
STARTCHAR C211
ENCODING 137
SWIDTH 384 0
DWIDTH 8 0
BBX 8 20 0 -4
BITMAP
00
00
00
00
00
00
00
00
00
7f
a4
24
48
48
90
90
00
00
00
00
ENDCHAR
STARTCHAR C212
ENCODING 138
SWIDTH 384 0
DWIDTH 8 0
BBX 8 20 0 -4
BITMAP
00
00
00
00
00
00
00
00
00
00
00
00
00
00
00
00
00
00
00
00
ENDCHAR
STARTCHAR C213
ENCODING 139
SWIDTH 384 0
DWIDTH 8 0
BBX 8 20 0 -4
BITMAP
00
00
00
00
00
00
00
00
00
0e
11
11
1e
10
10
20
20
c0
00
00
ENDCHAR
STARTCHAR C214
ENCODING 140
SWIDTH 384 0
DWIDTH 8 0
BBX 8 20 0 -4
BITMAP
10
10
10
10
10
10
10
7c
d6
92
92
92
d6
7c
10
10
10
10
10
10
ENDCHAR
STARTCHAR C215
ENCODING 141
SWIDTH 384 0
DWIDTH 8 0
BBX 8 20 0 -4
BITMAP
00
00
00
00
00
00
00
00
00
00
00
00
00
00
00
00
00
00
00
00
ENDCHAR
STARTCHAR C216
ENCODING 142
SWIDTH 384 0
DWIDTH 8 0
BBX 8 20 0 -4
BITMAP
00
00
00
00
00
00
00
00
00
00
00
09
09
12
12
3d
40
80
00
00
ENDCHAR
STARTCHAR C217
ENCODING 143
SWIDTH 384 0
DWIDTH 8 0
BBX 8 20 0 -4
BITMAP
10
10
10
10
10
10
10
10
10
ff
10
10
10
10
10
10
10
10
10
10
ENDCHAR
STARTCHAR C220
ENCODING 144
SWIDTH 384 0
DWIDTH 8 0
BBX 8 20 0 -4
BITMAP
10
10
10
10
10
10
10
10
10
ff
00
00
00
00
00
00
00
00
00
00
ENDCHAR
STARTCHAR C221
ENCODING 145
SWIDTH 384 0
DWIDTH 8 0
BBX 8 20 0 -4
BITMAP
00
00
00
00
00
00
00
00
00
ff
10
10
10
10
10
10
10
10
10
10
ENDCHAR
STARTCHAR C222
ENCODING 146
SWIDTH 384 0
DWIDTH 8 0
BBX 8 20 0 -4
BITMAP
10
10
10
10
10
10
10
10
10
f0
10
10
10
10
10
10
10
10
10
10
ENDCHAR
STARTCHAR C223
ENCODING 147
SWIDTH 384 0
DWIDTH 8 0
BBX 8 20 0 -4
BITMAP
10
10
10
10
10
10
10
10
10
1f
10
10
10
10
10
10
10
10
10
10
ENDCHAR
STARTCHAR C224
ENCODING 148
SWIDTH 384 0
DWIDTH 8 0
BBX 8 20 0 -4
BITMAP
00
00
00
00
00
1e
10
10
10
10
10
10
10
10
10
10
10
10
10
10
ENDCHAR
STARTCHAR C225
ENCODING 149
SWIDTH 384 0
DWIDTH 8 0
BBX 8 20 0 -4
BITMAP
00
00
00
00
00
00
00
00
00
ff
00
00
00
00
00
00
00
00
00
00
ENDCHAR
STARTCHAR C226
ENCODING 150
SWIDTH 384 0
DWIDTH 8 0
BBX 8 20 0 -4
BITMAP
10
10
10
10
10
10
10
10
10
10
10
10
10
10
10
10
10
10
10
10
ENDCHAR
STARTCHAR C227
ENCODING 151
SWIDTH 384 0
DWIDTH 8 0
BBX 8 20 0 -4
BITMAP
00
00
00
00
00
f0
10
10
10
10
10
10
10
10
10
10
10
10
10
10
ENDCHAR
STARTCHAR C230
ENCODING 152
SWIDTH 384 0
DWIDTH 8 0
BBX 8 20 0 -4
BITMAP
00
00
00
00
00
00
00
00
00
1f
10
10
10
10
10
10
10
10
10
10
ENDCHAR
STARTCHAR C231
ENCODING 153
SWIDTH 384 0
DWIDTH 8 0
BBX 8 20 0 -4
BITMAP
00
00
00
00
00
00
00
00
00
f0
10
10
10
10
10
10
10
10
10
10
ENDCHAR
STARTCHAR C232
ENCODING 154
SWIDTH 384 0
DWIDTH 8 0
BBX 8 20 0 -4
BITMAP
10
10
10
10
10
10
10
10
10
1f
00
00
00
00
00
00
00
00
00
00
ENDCHAR
STARTCHAR C233
ENCODING 155
SWIDTH 384 0
DWIDTH 8 0
BBX 8 20 0 -4
BITMAP
10
10
10
10
10
10
10
10
10
f0
00
00
00
00
00
00
00
00
00
00
ENDCHAR
STARTCHAR C234
ENCODING 156
SWIDTH 384 0
DWIDTH 8 0
BBX 8 20 0 -4
BITMAP
10
10
10
10
10
10
10
10
10
10
10
10
10
10
10
10
10
1e
00
00
ENDCHAR
STARTCHAR C235
ENCODING 157
SWIDTH 384 0
DWIDTH 8 0
BBX 8 20 0 -4
BITMAP
10
10
10
10
10
10
10
10
10
10
10
10
10
10
10
10
10
f0
00
00
ENDCHAR
STARTCHAR C236
ENCODING 158
SWIDTH 384 0
DWIDTH 8 0
BBX 8 20 0 -4
BITMAP
00
00
00
00
00
00
00
00
0c
12
10
10
10
10
10
10
10
10
10
10
ENDCHAR
STARTCHAR C237
ENCODING 159
SWIDTH 384 0
DWIDTH 8 0
BBX 8 20 0 -4
BITMAP
10
10
10
10
10
10
10
10
10
10
90
60
00
00
00
00
00
00
00
00
ENDCHAR
STARTCHAR nobreakspace
ENCODING 160
SWIDTH 384 0
DWIDTH 8 0
BBX 8 20 0 -4
BITMAP
00
00
00
00
00
00
00
00
00
18
18
00
00
00
00
00
00
00
00
00
ENDCHAR
STARTCHAR exclamdown
ENCODING 161
SWIDTH 384 0
DWIDTH 8 0
BBX 8 20 0 -4
BITMAP
00
00
00
00
00
00
00
00
3c
42
22
42
42
42
42
42
00
00
00
00
ENDCHAR
STARTCHAR cent
ENCODING 162
SWIDTH 384 0
DWIDTH 8 0
BBX 8 20 0 -4
BITMAP
00
00
00
00
00
00
00
00
24
54
34
14
14
14
14
18
00
00
00
00
ENDCHAR
STARTCHAR sterling
ENCODING 163
SWIDTH 384 0
DWIDTH 8 0
BBX 8 20 0 -4
BITMAP
00
00
00
00
00
00
00
00
b4
d4
14
14
14
14
14
18
00
00
00
00
ENDCHAR
STARTCHAR currency
ENCODING 164
SWIDTH 384 0
DWIDTH 8 0
BBX 8 20 0 -4
BITMAP
00
00
00
00
00
00
00
00
7c
82
82
92
aa
d2
82
82
00
00
00
00
ENDCHAR
STARTCHAR yen
ENCODING 165
SWIDTH 384 0
DWIDTH 8 0
BBX 8 20 0 -4
BITMAP
00
00
00
00
00
00
00
00
6c
92
82
92
aa
d2
82
82
00
00
00
00
ENDCHAR
STARTCHAR brokenbar
ENCODING 166
SWIDTH 384 0
DWIDTH 8 0
BBX 8 20 0 -4
BITMAP
00
00
00
00
00
00
00
00
b2
d2
32
22
72
aa
a6
62
00
00
00
00
ENDCHAR
STARTCHAR section
ENCODING 167
SWIDTH 384 0
DWIDTH 8 0
BBX 8 20 0 -4
BITMAP
00
00
00
00
00
00
00
00
08
14
0c
04
44
24
14
0c
00
00
00
00
ENDCHAR
STARTCHAR diaeresis
ENCODING 168
SWIDTH 384 0
DWIDTH 8 0
BBX 8 20 0 -4
BITMAP
00
00
00
00
00
00
00
00
7c
82
12
2a
1a
0a
0a
06
00
00
00
00
ENDCHAR
STARTCHAR copyright
ENCODING 169
SWIDTH 384 0
DWIDTH 8 0
BBX 8 20 0 -4
BITMAP
00
00
00
00
00
00
00
00
78
84
04
44
a4
6e
55
66
00
00
00
00
ENDCHAR
STARTCHAR ordfeminine
ENCODING 170
SWIDTH 384 0
DWIDTH 8 0
BBX 8 20 0 -4
BITMAP
00
00
00
00
00
00
02
04
28
54
34
14
14
14
14
18
00
00
00
00
ENDCHAR
STARTCHAR guillemotleft
ENCODING 171
SWIDTH 384 0
DWIDTH 8 0
BBX 8 20 0 -4
BITMAP
00
00
00
00
00
00
02
04
a8
d4
14
24
24
24
28
30
00
00
00
00
ENDCHAR
STARTCHAR notsign
ENCODING 172
SWIDTH 384 0
DWIDTH 8 0
BBX 8 20 0 -4
BITMAP
00
00
00
00
00
00
00
00
72
8a
4a
8a
8a
9a
ae
da
00
00
00
00
ENDCHAR
STARTCHAR hyphen
ENCODING 173
SWIDTH 384 0
DWIDTH 8 0
BBX 8 20 0 -4
BITMAP
00
00
00
00
00
00
00
00
72
8a
4a
8a
8a
ca
aa
ee
00
08
0e
00
ENDCHAR
STARTCHAR registered
ENCODING 174
SWIDTH 384 0
DWIDTH 8 0
BBX 8 20 0 -4
BITMAP
00
00
00
00
00
00
00
00
7c
82
e2
22
22
62
a2
43
16
2a
36
00
ENDCHAR
STARTCHAR macron
ENCODING 175
SWIDTH 384 0
DWIDTH 8 0
BBX 8 20 0 -4
BITMAP
00
00
00
00
00
00
00
00
7c
82
62
22
22
62
a2
42
02
aa
56
00
ENDCHAR
STARTCHAR degree
ENCODING 176
SWIDTH 384 0
DWIDTH 8 0
BBX 8 20 0 -4
BITMAP
00
00
00
00
00
00
00
00
3e
40
7c
02
1a
1a
06
06
00
2a
56
00
ENDCHAR
STARTCHAR plusminus
ENCODING 177
SWIDTH 384 0
DWIDTH 8 0
BBX 8 20 0 -4
BITMAP
00
00
00
00
00
00
00
00
b6
da
32
42
42
42
42
42
00
00
00
00
ENDCHAR
STARTCHAR twosuperior
ENCODING 178
SWIDTH 384 0
DWIDTH 8 0
BBX 8 20 0 -4
BITMAP
00
00
00
00
00
00
00
00
52
aa
8a
8a
aa
de
aa
9a
00
00
00
00
ENDCHAR
STARTCHAR threesuperior
ENCODING 179
SWIDTH 384 0
DWIDTH 8 0
BBX 8 20 0 -4
BITMAP
00
00
00
00
00
00
00
00
64
94
54
94
94
96
9d
d6
00
00
00
00
ENDCHAR
STARTCHAR acute
ENCODING 180
SWIDTH 384 0
DWIDTH 8 0
BBX 8 20 0 -4
BITMAP
00
00
00
00
00
00
00
00
3c
42
42
52
6a
5a
4a
72
00
00
00
00
ENDCHAR
STARTCHAR mu
ENCODING 181
SWIDTH 384 0
DWIDTH 8 0
BBX 8 20 0 -4
BITMAP
00
00
00
00
00
00
00
00
6c
92
92
a2
d2
b2
92
e2
00
00
00
00
ENDCHAR
STARTCHAR paragraph
ENCODING 182
SWIDTH 384 0
DWIDTH 8 0
BBX 8 20 0 -4
BITMAP
00
00
00
00
00
00
00
00
3c
42
22
42
42
62
52
22
00
00
00
00
ENDCHAR
STARTCHAR periodcentered
ENCODING 183
SWIDTH 384 0
DWIDTH 8 0
BBX 8 20 0 -4
BITMAP
00
00
00
00
00
00
00
00
c4
aa
52
62
42
42
42
42
00
00
00
00
ENDCHAR
STARTCHAR cedilla
ENCODING 184
SWIDTH 384 0
DWIDTH 8 0
BBX 8 20 0 -4
BITMAP
00
00
00
00
00
00
00
00
3e
50
7c
12
12
12
12
1e
00
00
00
00
ENDCHAR
STARTCHAR onesuperior
ENCODING 185
SWIDTH 384 0
DWIDTH 8 0
BBX 8 20 0 -4
BITMAP
00
00
00
00
00
00
00
00
64
a4
64
24
44
4e
55
66
00
00
00
00
ENDCHAR
STARTCHAR masculine
ENCODING 186
SWIDTH 384 0
DWIDTH 8 0
BBX 8 20 0 -4
BITMAP
00
00
00
00
00
00
00
00
42
a2
62
22
22
22
22
7e
00
00
00
00
ENDCHAR
STARTCHAR guillemotright
ENCODING 187
SWIDTH 384 0
DWIDTH 8 0
BBX 8 20 0 -4
BITMAP
00
00
00
00
00
02
02
02
42
a2
62
22
22
22
22
3e
00
00
00
00
ENDCHAR
STARTCHAR onequarter
ENCODING 188
SWIDTH 384 0
DWIDTH 8 0
BBX 8 20 0 -4
BITMAP
00
00
00
00
00
00
00
00
22
52
62
42
42
42
5a
66
00
00
00
00
ENDCHAR
STARTCHAR onehalf
ENCODING 189
SWIDTH 384 0
DWIDTH 8 0
BBX 8 20 0 -4
BITMAP
00
00
00
00
00
02
02
02
22
52
62
42
42
42
5a
66
00
00
00
00
ENDCHAR
STARTCHAR threequarters
ENCODING 190
SWIDTH 384 0
DWIDTH 8 0
BBX 8 20 0 -4
BITMAP
00
00
00
00
00
00
00
00
42
a2
62
22
2a
2a
36
22
00
00
00
00
ENDCHAR
STARTCHAR questiondown
ENCODING 191
SWIDTH 384 0
DWIDTH 8 0
BBX 8 20 0 -4
BITMAP
00
00
00
00
00
02
02
02
42
a2
62
22
2a
2a
36
22
00
00
00
00
ENDCHAR
STARTCHAR Agrave
ENCODING 192
SWIDTH 384 0
DWIDTH 8 0
BBX 8 20 0 -4
BITMAP
00
00
00
00
00
00
00
00
7c
82
c2
22
22
62
a2
42
00
00
00
00
ENDCHAR
STARTCHAR Aacute
ENCODING 193
SWIDTH 384 0
DWIDTH 8 0
BBX 8 20 0 -4
BITMAP
00
00
00
00
00
00
00
00
42
a2
62
22
22
7a
a6
62
00
00
00
00
ENDCHAR
STARTCHAR Acircumflex
ENCODING 194
SWIDTH 384 0
DWIDTH 8 0
BBX 8 20 0 -4
BITMAP
00
00
00
00
00
00
00
00
22
52
62
42
32
42
42
7e
00
00
00
00
ENDCHAR
STARTCHAR Atilde
ENCODING 195
SWIDTH 384 0
DWIDTH 8 0
BBX 8 20 0 -4
BITMAP
00
00
00
00
00
00
00
00
3e
60
7c
02
02
06
0a
04
00
00
00
00
ENDCHAR
STARTCHAR Adiaeresis
ENCODING 196
SWIDTH 384 0
DWIDTH 8 0
BBX 8 20 0 -4
BITMAP
00
00
00
00
00
00
00
00
3c
42
22
42
42
62
52
22
02
02
02
00
ENDCHAR
STARTCHAR Aring
ENCODING 197
SWIDTH 384 0
DWIDTH 8 0
BBX 8 20 0 -4
BITMAP
00
00
00
00
00
00
00
00
7c
82
02
3a
46
62
52
22
00
00
00
00
ENDCHAR
STARTCHAR AE
ENCODING 198
SWIDTH 384 0
DWIDTH 8 0
BBX 8 20 0 -4
BITMAP
00
00
00
00
00
00
00
00
7c
82
e2
22
22
62
a2
42
02
02
02
00
ENDCHAR
STARTCHAR Ccedilla
ENCODING 199
SWIDTH 384 0
DWIDTH 8 0
BBX 8 20 0 -4
BITMAP
00
00
00
00
00
00
00
00
3c
42
02
02
02
06
0a
04
00
00
00
00
ENDCHAR
STARTCHAR Egrave
ENCODING 200
SWIDTH 384 0
DWIDTH 8 0
BBX 8 20 0 -4
BITMAP
00
00
00
00
00
00
04
08
3c
42
42
5a
5a
52
52
32
00
00
00
00
ENDCHAR
STARTCHAR Eacute
ENCODING 201
SWIDTH 384 0
DWIDTH 8 0
BBX 8 20 0 -4
BITMAP
00
00
00
00
00
00
00
00
42
a2
62
2a
2f
22
22
7e
00
00
00
00
ENDCHAR
STARTCHAR Ecircumflex
ENCODING 202
SWIDTH 384 0
DWIDTH 8 0
BBX 8 20 0 -4
BITMAP
00
00
00
00
00
00
02
04
7c
82
02
3a
46
62
52
22
00
00
00
00
ENDCHAR
STARTCHAR Ediaeresis
ENCODING 203
SWIDTH 384 0
DWIDTH 8 0
BBX 8 20 0 -4
BITMAP
00
00
00
00
00
00
00
00
46
aa
64
4e
52
62
42
42
00
00
00
00
ENDCHAR
STARTCHAR Igrave
ENCODING 204
SWIDTH 384 0
DWIDTH 8 0
BBX 8 20 0 -4
BITMAP
00
00
00
00
00
06
0a
07
42
a2
62
22
42
5a
66
42
00
00
00
00
ENDCHAR
STARTCHAR Iacute
ENCODING 205
SWIDTH 384 0
DWIDTH 8 0
BBX 8 20 0 -4
BITMAP
00
00
00
00
00
00
00
00
7c
c2
02
22
52
62
42
7c
00
00
00
00
ENDCHAR
STARTCHAR Icircumflex
ENCODING 206
SWIDTH 384 0
DWIDTH 8 0
BBX 8 20 0 -4
BITMAP
00
00
00
00
00
00
02
04
7c
ca
72
22
52
62
42
3c
00
00
00
00
ENDCHAR
STARTCHAR Idiaeresis
ENCODING 207
SWIDTH 384 0
DWIDTH 8 0
BBX 8 20 0 -4
BITMAP
00
00
00
00
00
00
00
00
00
64
4c
34
04
04
04
08
00
00
00
00
ENDCHAR
STARTCHAR ETH
ENCODING 208
SWIDTH 384 0
DWIDTH 8 0
BBX 8 20 0 -4
BITMAP
00
00
00
00
00
00
00
00
00
00
62
3c
00
62
3c
00
00
00
00
00
ENDCHAR
STARTCHAR Ntilde
ENCODING 209
SWIDTH 0 0
DWIDTH 0 0
BBX 8 20 -8 -4
BITMAP
00
00
00
00
21
51
3e
00
00
00
00
00
00
00
00
00
00
00
00
00
ENDCHAR
STARTCHAR Ograve
ENCODING 210
SWIDTH 384 0
DWIDTH 8 0
BBX 8 20 0 -4
BITMAP
00
00
00
00
00
00
00
00
3c
42
02
02
02
02
02
02
00
00
00
00
ENDCHAR
STARTCHAR Oacute
ENCODING 211
SWIDTH 384 0
DWIDTH 8 0
BBX 16 20 -8 -4
BITMAP
0000
0000
0000
0000
0c00
1200
0c00
0000
003c
0042
0002
0002
0002
0002
0002
0002
0000
0000
0000
0000
ENDCHAR
STARTCHAR Ocircumflex
ENCODING 212
SWIDTH 0 0
DWIDTH 0 0
BBX 8 20 -8 -4
BITMAP
00
00
00
00
3c
42
7e
00
00
00
00
00
00
00
00
00
00
00
00
00
ENDCHAR
STARTCHAR Otilde
ENCODING 213
SWIDTH 0 0
DWIDTH 0 0
BBX 8 20 -8 -4
BITMAP
00
00
00
00
79
85
ff
00
00
00
00
00
00
00
00
00
00
00
00
00
ENDCHAR
STARTCHAR Odiaeresis
ENCODING 214
SWIDTH 0 0
DWIDTH 0 0
BBX 8 20 -8 -4
BITMAP
00
00
00
00
76
8d
fe
00
00
00
00
00
00
00
00
00
00
00
00
00
ENDCHAR
STARTCHAR multiply
ENCODING 215
SWIDTH 0 0
DWIDTH 0 0
BBX 8 20 -8 -4
BITMAP
00
00
00
00
75
8d
ff
00
00
00
00
00
00
00
00
00
00
00
00
00
ENDCHAR
STARTCHAR Ooblique
ENCODING 216
SWIDTH 0 0
DWIDTH 0 0
BBX 8 20 -8 -4
BITMAP
00
00
00
00
00
00
00
00
00
00
00
00
00
00
00
00
00
0c
04
04
ENDCHAR
STARTCHAR Ugrave
ENCODING 217
SWIDTH 0 0
DWIDTH 0 0
BBX 8 20 -8 -4
BITMAP
00
00
00
00
00
00
00
00
00
00
00
00
00
00
00
00
00
1a
0a
0e
ENDCHAR
STARTCHAR Uacute
ENCODING 218
SWIDTH 0 0
DWIDTH 0 0
BBX 8 20 -8 -4
BITMAP
00
00
00
00
00
00
00
00
00
00
00
00
00
00
00
00
00
08
1c
08
ENDCHAR
STARTCHAR Ucircumflex
ENCODING 219
SWIDTH 384 0
DWIDTH 8 0
BBX 8 20 0 -4
BITMAP
60
22
7c
00
20
42
3c
00
00
00
00
00
00
00
00
00
00
00
00
00
ENDCHAR
STARTCHAR Udiaeresis
ENCODING 220
SWIDTH 384 0
DWIDTH 8 0
BBX 8 20 0 -4
BITMAP
00
00
00
00
00
00
00
00
00
00
00
00
00
00
00
00
00
00
00
00
ENDCHAR
STARTCHAR Yacute
ENCODING 221
SWIDTH 384 0
DWIDTH 8 0
BBX 8 20 0 -4
BITMAP
00
00
00
00
00
00
00
00
00
00
00
00
00
00
00
00
00
00
00
00
ENDCHAR
STARTCHAR THORN
ENCODING 222
SWIDTH 384 0
DWIDTH 8 0
BBX 8 20 0 -4
BITMAP
00
00
00
00
00
00
00
00
00
00
00
00
00
00
00
00
00
00
00
00
ENDCHAR
STARTCHAR ssharp
ENCODING 223
SWIDTH 384 0
DWIDTH 8 0
BBX 8 20 0 -4
BITMAP
00
00
00
00
00
00
00
00
00
7d
26
2a
3c
32
62
bc
00
00
00
00
ENDCHAR
STARTCHAR agrave
ENCODING 224
SWIDTH 384 0
DWIDTH 8 0
BBX 8 20 0 -4
BITMAP
00
00
00
00
00
00
00
00
10
10
10
10
10
18
14
08
00
00
00
00
ENDCHAR
STARTCHAR aacute
ENCODING 225
SWIDTH 384 0
DWIDTH 8 0
BBX 8 20 0 -4
BITMAP
00
00
00
00
00
00
00
00
48
48
48
48
48
48
6c
6c
00
00
00
00
ENDCHAR
STARTCHAR acircumflex
ENCODING 226
SWIDTH 384 0
DWIDTH 8 0
BBX 8 20 0 -4
BITMAP
00
00
00
00
3e
40
f8
04
04
04
04
04
04
06
05
02
00
00
00
00
ENDCHAR
STARTCHAR atilde
ENCODING 227
SWIDTH 384 0
DWIDTH 8 0
BBX 8 20 0 -4
BITMAP
00
00
00
00
78
84
94
74
04
04
04
04
04
06
05
02
00
00
00
00
ENDCHAR
STARTCHAR adiaeresis
ENCODING 228
SWIDTH 384 0
DWIDTH 8 0
BBX 8 20 0 -4
BITMAP
00
00
00
00
8c
54
24
04
04
04
04
04
04
06
05
02
00
00
00
00
ENDCHAR
STARTCHAR aring
ENCODING 229
SWIDTH 384 0
DWIDTH 8 0
BBX 8 20 0 -4
BITMAP
00
00
00
00
00
00
00
00
3c
42
02
02
02
02
02
02
02
02
00
00
ENDCHAR
STARTCHAR ae
ENCODING 230
SWIDTH 384 0
DWIDTH 8 0
BBX 8 20 0 -4
BITMAP
00
00
00
00
00
00
00
00
ec
92
02
02
02
02
02
02
02
00
00
00
ENDCHAR
STARTCHAR ccedilla
ENCODING 231
SWIDTH 0 0
DWIDTH 0 0
BBX 8 20 -8 -4
BITMAP
01
3e
48
36
00
00
00
00
00
00
00
00
00
00
00
00
00
00
00
00
ENDCHAR
STARTCHAR egrave
ENCODING 232
SWIDTH 0 0
DWIDTH 0 0
BBX 8 20 -8 -4
BITMAP
02
02
02
00
00
00
00
00
00
00
00
00
00
00
00
00
00
00
00
00
ENDCHAR
STARTCHAR eacute
ENCODING 233
SWIDTH 0 0
DWIDTH 0 0
BBX 8 20 -8 -4
BITMAP
31
12
3c
00
00
00
00
00
00
00
00
00
00
00
00
00
00
00
00
00
ENDCHAR
STARTCHAR ecircumflex
ENCODING 234
SWIDTH 0 0
DWIDTH 0 0
BBX 8 20 -8 -4
BITMAP
6d
95
52
00
00
00
00
00
00
00
00
00
00
00
00
00
00
00
00
00
ENDCHAR
STARTCHAR ediaeresis
ENCODING 235
SWIDTH 0 0
DWIDTH 0 0
BBX 8 20 -8 -4
BITMAP
04
1f
04
00
00
00
00
00
00
00
00
00
00
00
00
00
00
00
00
00
ENDCHAR
STARTCHAR igrave
ENCODING 236
SWIDTH 0 0
DWIDTH 0 0
BBX 8 20 -8 -4
BITMAP
03
0c
14
08
00
00
00
00
00
00
00
00
00
00
00
00
00
00
00
00
ENDCHAR
STARTCHAR iacute
ENCODING 237
SWIDTH 0 0
DWIDTH 0 0
BBX 8 20 -8 -4
BITMAP
00
00
00
00
0c
12
0c
00
00
00
00
00
00
00
00
00
00
00
00
00
ENDCHAR
STARTCHAR icircumflex
ENCODING 238
SWIDTH 0 0
DWIDTH 0 0
BBX 8 20 -8 -4
BITMAP
00
00
00
03
0c
16
18
00
00
00
00
00
00
00
00
00
00
00
00
00
ENDCHAR
STARTCHAR idiaeresis
ENCODING 239
SWIDTH 384 0
DWIDTH 8 0
BBX 8 20 0 -4
BITMAP
00
00
00
00
00
00
00
00
00
3c
42
5a
42
3c
00
00
00
00
00
00
ENDCHAR
STARTCHAR eth
ENCODING 240
SWIDTH 384 0
DWIDTH 8 0
BBX 8 20 0 -4
BITMAP
00
00
00
00
00
00
00
00
00
3c
42
42
42
42
42
3c
00
00
00
00
ENDCHAR
STARTCHAR ntilde
ENCODING 241
SWIDTH 384 0
DWIDTH 8 0
BBX 8 20 0 -4
BITMAP
00
00
00
00
00
00
00
00
00
3c
42
4a
32
02
04
38
00
00
00
00
ENDCHAR
STARTCHAR ograve
ENCODING 242
SWIDTH 384 0
DWIDTH 8 0
BBX 8 20 0 -4
BITMAP
00
00
00
00
00
00
00
00
80
94
aa
aa
a2
b2
82
fc
00
00
00
00
ENDCHAR
STARTCHAR oacute
ENCODING 243
SWIDTH 384 0
DWIDTH 8 0
BBX 8 20 0 -4
BITMAP
00
00
00
00
00
00
00
00
00
6c
aa
92
92
c2
a2
44
00
00
00
00
ENDCHAR
STARTCHAR ocircumflex
ENCODING 244
SWIDTH 384 0
DWIDTH 8 0
BBX 8 20 0 -4
BITMAP
00
00
00
00
00
00
00
00
02
3c
40
80
98
90
88
7c
00
00
00
00
ENDCHAR
STARTCHAR otilde
ENCODING 245
SWIDTH 384 0
DWIDTH 8 0
BBX 8 20 0 -4
BITMAP
00
00
00
00
00
00
00
00
02
34
78
80
98
90
88
7c
00
00
00
00
ENDCHAR
STARTCHAR odiaeresis
ENCODING 246
SWIDTH 384 0
DWIDTH 8 0
BBX 8 20 0 -4
BITMAP
00
00
00
00
00
00
00
80
40
3c
02
01
21
51
62
3c
00
00
00
00
ENDCHAR
STARTCHAR division
ENCODING 247
SWIDTH 384 0
DWIDTH 8 0
BBX 8 20 0 -4
BITMAP
00
00
00
00
00
00
00
00
02
52
aa
aa
8a
ca
ac
48
00
00
00
00
ENDCHAR
STARTCHAR oslash
ENCODING 248
SWIDTH 384 0
DWIDTH 8 0
BBX 8 20 0 -4
BITMAP
00
00
00
00
00
00
00
00
02
04
78
80
86
96
92
6c
00
00
00
00
ENDCHAR
STARTCHAR ugrave
ENCODING 249
SWIDTH 384 0
DWIDTH 8 0
BBX 8 20 0 -4
BITMAP
00
00
00
00
00
00
00
01
02
1c
74
92
88
a4
d2
60
00
00
00
00
ENDCHAR
STARTCHAR uacute
ENCODING 250
SWIDTH 384 0
DWIDTH 8 0
BBX 8 20 0 -4
BITMAP
00
00
00
00
00
00
00
00
00
ca
9a
6a
0a
0a
0a
14
00
00
00
00
ENDCHAR
STARTCHAR ucircumflex
ENCODING 251
SWIDTH 384 0
DWIDTH 8 0
BBX 8 20 0 -4
BITMAP
00
00
00
00
00
00
00
00
00
60
90
aa
8f
94
60
00
00
00
00
00
ENDCHAR
STARTCHAR udiaeresis
ENCODING 252
SWIDTH 384 0
DWIDTH 8 0
BBX 8 20 0 -4
BITMAP
00
00
00
00
00
00
00
00
00
00
00
00
00
00
00
00
00
00
00
00
ENDCHAR
STARTCHAR yacute
ENCODING 253
SWIDTH 384 0
DWIDTH 8 0
BBX 8 20 0 -4
BITMAP
00
00
00
00
00
00
00
00
00
00
00
00
00
00
00
00
00
00
00
00
ENDCHAR
STARTCHAR thorn
ENCODING 254
SWIDTH 384 0
DWIDTH 8 0
BBX 8 20 0 -4
BITMAP
00
00
00
00
00
00
00
00
00
00
00
00
00
00
00
00
00
00
00
00
ENDCHAR
STARTCHAR ydiaeresis
ENCODING 255
SWIDTH 384 0
DWIDTH 8 0
BBX 8 20 0 -4
BITMAP
00
00
00
00
00
00
00
00
00
00
00
00
00
00
00
00
00
00
00
00
ENDCHAR
ENDFONT
